<svg id="visual" viewBox="0 0 900 250" width="900" height="250" xmlns="http://www.w3.org/2000/svg" xmlns:xlink="http://www.w3.org/1999/xlink" version="1.1"><rect x="0" y="0" width="900" height="250" fill="#fff"></rect><path d="M0 39L16.7 39.7C33.3 40.3 66.7 41.7 100 40.2C133.3 38.7 166.7 34.3 200 36.2C233.3 38 266.7 46 300 48.3C333.3 50.7 366.7 47.3 400 42.7C433.3 38 466.7 32 500 32.8C533.3 33.7 566.7 41.3 600 44.7C633.3 48 666.7 47 700 42.7C733.3 38.3 766.7 30.7 800 27.3C833.3 24 866.7 25 883.3 25.5L900 26L900 251L883.3 251C866.7 251 833.3 251 800 251C766.7 251 733.3 251 700 251C666.7 251 633.3 251 600 251C566.7 251 533.3 251 500 251C466.7 251 433.3 251 400 251C366.7 251 333.3 251 300 251C266.7 251 233.3 251 200 251C166.7 251 133.3 251 100 251C66.7 251 33.3 251 16.7 251L0 251Z" fill="#784d3c"></path><path d="M0 71L16.7 74.8C33.3 78.7 66.7 86.3 100 85.2C133.3 84 166.7 74 200 70C233.3 66 266.7 68 300 70.7C333.3 73.3 366.7 76.7 400 75.8C433.3 75 466.7 70 500 67C533.3 64 566.7 63 600 66.5C633.3 70 666.7 78 700 79.5C733.3 81 766.7 76 800 74.3C833.3 72.7 866.7 74.3 883.3 75.2L900 76L900 251L883.3 251C866.7 251 833.3 251 800 251C766.7 251 733.3 251 700 251C666.7 251 633.3 251 600 251C566.7 251 533.3 251 500 251C466.7 251 433.3 251 400 251C366.7 251 333.3 251 300 251C266.7 251 233.3 251 200 251C166.7 251 133.3 251 100 251C66.7 251 33.3 251 16.7 251L0 251Z" fill="#643c2b"></path><path d="M0 125L16.7 119.8C33.3 114.7 66.7 104.3 100 101.7C133.3 99 166.7 104 200 109.2C233.3 114.3 266.7 119.7 300 118.7C333.3 117.7 366.7 110.3 400 106.3C433.3 102.3 466.7 101.7 500 105.5C533.3 109.3 566.7 117.7 600 116.3C633.3 115 666.7 104 700 100.8C733.3 97.7 766.7 102.3 800 106.3C833.3 110.3 866.7 113.7 883.3 115.3L900 117L900 251L883.3 251C866.7 251 833.3 251 800 251C766.7 251 733.3 251 700 251C666.7 251 633.3 251 600 251C566.7 251 533.3 251 500 251C466.7 251 433.3 251 400 251C366.7 251 333.3 251 300 251C266.7 251 233.3 251 200 251C166.7 251 133.3 251 100 251C66.7 251 33.3 251 16.7 251L0 251Z" fill="#512b1c"></path><path d="M0 141L16.7 144.5C33.3 148 66.7 155 100 158.7C133.3 162.3 166.7 162.7 200 157.2C233.3 151.7 266.7 140.3 300 136.7C333.3 133 366.7 137 400 140.8C433.3 144.7 466.7 148.3 500 150.7C533.3 153 566.7 154 600 155.5C633.3 157 666.7 159 700 160.2C733.3 161.3 766.7 161.7 800 157C833.3 152.3 866.7 142.7 883.3 137.8L900 133L900 251L883.3 251C866.7 251 833.3 251 800 251C766.7 251 733.3 251 700 251C666.7 251 633.3 251 600 251C566.7 251 533.3 251 500 251C466.7 251 433.3 251 400 251C366.7 251 333.3 251 300 251C266.7 251 233.3 251 200 251C166.7 251 133.3 251 100 251C66.7 251 33.3 251 16.7 251L0 251Z" fill="#3f1b0b"></path><path d="M0 186L16.7 187.5C33.3 189 66.7 192 100 191.5C133.3 191 166.7 187 200 182C233.3 177 266.7 171 300 168.8C333.3 166.7 366.7 168.3 400 170.8C433.3 173.3 466.7 176.7 500 181.2C533.3 185.7 566.7 191.3 600 189.3C633.3 187.3 666.7 177.7 700 175.5C733.3 173.3 766.7 178.7 800 183.2C833.3 187.7 866.7 191.3 883.3 193.2L900 195L900 251L883.3 251C866.7 251 833.3 251 800 251C766.7 251 733.3 251 700 251C666.7 251 633.3 251 600 251C566.7 251 533.3 251 500 251C466.7 251 433.3 251 400 251C366.7 251 333.3 251 300 251C266.7 251 233.3 251 200 251C166.7 251 133.3 251 100 251C66.7 251 33.3 251 16.7 251L0 251Z" fill="#2f0b00"></path><path d="M0 205L16.7 204C33.3 203 66.7 201 100 205C133.3 209 166.7 219 200 223.7C233.3 228.3 266.7 227.7 300 222.2C333.3 216.7 366.7 206.3 400 204C433.3 201.7 466.7 207.3 500 211.5C533.3 215.7 566.7 218.3 600 220.2C633.3 222 666.7 223 700 219.3C733.3 215.7 766.7 207.3 800 204C833.3 200.7 866.7 202.3 883.3 203.2L900 204L900 251L883.3 251C866.7 251 833.3 251 800 251C766.7 251 733.3 251 700 251C666.7 251 633.3 251 600 251C566.7 251 533.3 251 500 251C466.7 251 433.3 251 400 251C366.7 251 333.3 251 300 251C266.7 251 233.3 251 200 251C166.7 251 133.3 251 100 251C66.7 251 33.3 251 16.7 251L0 251Z" fill="#000000"></path></svg>