<svg id="visual" viewBox="0 0 900 150" width="900" height="150" xmlns="http://www.w3.org/2000/svg" xmlns:xlink="http://www.w3.org/1999/xlink" version="1.1"><rect x="0" y="0" width="900" height="150" fill="#fff"></rect><path d="M0 39L82 30L164 28L245 37L327 40L409 34L491 33L573 17L655 16L736 24L818 30L900 39L900 151L818 151L736 151L655 151L573 151L491 151L409 151L327 151L245 151L164 151L82 151L0 151Z" fill="#784d3c"></path><path d="M0 46L82 55L164 35L245 28L327 55L409 34L491 46L573 32L655 38L736 29L818 52L900 27L900 151L818 151L736 151L655 151L573 151L491 151L409 151L327 151L245 151L164 151L82 151L0 151Z" fill="#6a4130"></path><path d="M0 50L82 50L164 59L245 61L327 48L409 45L491 53L573 70L655 49L736 64L818 44L900 64L900 151L818 151L736 151L655 151L573 151L491 151L409 151L327 151L245 151L164 151L82 151L0 151Z" fill="#5c3425"></path><path d="M0 59L82 61L164 83L245 65L327 67L409 75L491 68L573 65L655 75L736 77L818 65L900 68L900 151L818 151L736 151L655 151L573 151L491 151L409 151L327 151L245 151L164 151L82 151L0 151Z" fill="#4f2919"></path><path d="M0 80L82 84L164 95L245 83L327 80L409 88L491 97L573 93L655 78L736 98L818 78L900 89L900 151L818 151L736 151L655 151L573 151L491 151L409 151L327 151L245 151L164 151L82 151L0 151Z" fill="#421d0e"></path><path d="M0 100L82 91L164 94L245 96L327 108L409 113L491 95L573 111L655 100L736 99L818 104L900 106L900 151L818 151L736 151L655 151L573 151L491 151L409 151L327 151L245 151L164 151L82 151L0 151Z" fill="#351200"></path><path d="M0 115L82 120L164 110L245 119L327 124L409 114L491 121L573 120L655 107L736 128L818 119L900 108L900 151L818 151L736 151L655 151L573 151L491 151L409 151L327 151L245 151L164 151L82 151L0 151Z" fill="#2c0500"></path><path d="M0 142L82 124L164 141L245 139L327 124L409 134L491 130L573 140L655 134L736 124L818 137L900 137L900 151L818 151L736 151L655 151L573 151L491 151L409 151L327 151L245 151L164 151L82 151L0 151Z" fill="#000000"></path></svg>